<svg width="480" height="480" viewBox="0 0 480 480" fill="none" xmlns="http://www.w3.org/2000/svg">
<path d="M360 192L356 184L352 192L356 194L360 192Z" fill="#D5D3DD"/>
<path d="M348 192L344 184L340 192L344 194L348 192Z" fill="#D5D3DD"/>
<path d="M336 192L332 184L328 192L332 194L336 192Z" fill="#D5D3DD"/>
<path d="M324 192L320 184L316 192L320 194L324 192Z" fill="#D5D3DD"/>
<path d="M312 192L308 184L304 192L308 194L312 192Z" fill="#D5D3DD"/>
<path d="M354 176L350 184L346 176L350 174L354 176Z" fill="#D5D3DD"/>
<path d="M342 176L338 184L334 176L338 174L342 176Z" fill="#D5D3DD"/>
<path d="M330 176L326 184L322 176L326 174L330 176Z" fill="#D5D3DD"/>
<path d="M318 176L314 184L310 176L314 174L318 176Z" fill="#D5D3DD"/>
<path d="M292 260L268 246.415L292 232.83V260Z" fill="#E2CBB5"/>
<path d="M292 239.724L268 226.138L292 212.553V239.724Z" fill="#E2CBB5"/>
<path d="M292 219.447L268 205.862L292 192.276V219.447Z" fill="#E2CBB5"/>
<path d="M292 199.171L268 185.585L292 172V199.171Z" fill="#E2CBB5"/>
<path d="M307.913 192.07C303.512 192.07 299.93 188.477 299.93 184.064C299.93 179.65 303.512 176.057 307.913 176.057H359.799V140.027C359.799 133.271 358.083 127.797 354.86 123.793L360.138 118.499C361.695 119.47 363.61 120.01 365.786 120.01C366.883 120.01 367.781 119.109 367.781 118.008C367.781 116.907 366.883 116.007 365.786 116.007C361.984 116.007 359.799 113.815 359.799 110.002C359.799 108.901 358.901 108 357.803 108C356.706 108 355.808 108.901 355.808 110.002C355.808 112.184 356.346 114.105 357.314 115.666L352.036 120.961C348.045 117.728 342.587 116.007 335.851 116.007H311.904C305.169 116.007 299.71 117.728 295.719 120.961L290.441 115.666C291.409 114.105 291.948 112.184 291.948 110.002C291.948 108.901 291.049 108 289.952 108C288.854 108 287.956 108.901 287.956 110.002C287.956 113.815 285.771 116.007 281.969 116.007C280.872 116.007 279.974 116.907 279.974 118.008C279.974 119.109 280.872 120.01 281.969 120.01C284.145 120.01 286.06 119.47 287.617 118.499L292.895 123.793C289.672 127.797 287.956 133.271 287.956 140.027V264.131C287.956 266.343 286.17 268.134 283.965 268.134H268V311L282.798 296.158H287.956C298.822 296.158 308.591 289.912 313.201 280.144H351.816C354.021 280.144 355.808 281.936 355.808 284.148V300.161H398.544L383.746 285.318V280.144C383.746 266.212 373.369 254.373 359.799 252.411V252.121H411.386L399.831 242.843L414 238.109L399.831 233.375L411.386 224.097H359.799V220.094H411.386L399.831 210.816L414 206.082L399.831 201.348L411.386 192.07H307.913Z" fill="#9FA628"/>
<path d="M312 167C316.971 167 321 162.971 321 158C321 153.029 316.971 149 312 149C307.029 149 303 153.029 303 158C303 162.971 307.029 167 312 167Z" fill="white"/>
<path d="M312 163C314.761 163 317 160.761 317 158C317 155.239 314.761 153 312 153C309.239 153 307 155.239 307 158C307 160.761 309.239 163 312 163Z" fill="#BF6C35"/>
<path d="M336 167C340.971 167 345 162.971 345 158C345 153.029 340.971 149 336 149C331.029 149 327 153.029 327 158C327 162.971 331.029 167 336 167Z" fill="white"/>
<path d="M336 163C338.761 163 341 160.761 341 158C341 155.239 338.761 153 336 153C333.239 153 331 155.239 331 158C331 160.761 333.239 163 336 163Z" fill="#BF6C35"/>
<path d="M111 301C129.225 301 144 286.263 144 268.083C144 262.288 142.499 255.505 139.863 248.953L133.876 254.94L126.585 246.313L119.125 258.842L109.383 252.176L99.8754 263.797L89.0476 248.328L80.0166 255.102C78.7121 259.632 78 264.092 78 268.083C78 286.263 92.7746 301 111 301Z" fill="#E2CBB5"/>
<path d="M82.3849 248.345C88.0834 234.577 98.764 222 111 222C122.249 222 132.183 232.629 138.14 245.042L134.122 249.059L126.02 239.473L117.873 253.158L108.615 246.823L100.123 257.203L89.9506 242.671L82.3849 248.345Z" fill="#E2CBB5"/>
<path d="M190 245L178 238.5L190 232V245Z" fill="#E2CBB5"/>
<path d="M190 258L178 251.5L190 245V258Z" fill="#E2CBB5"/>
<path d="M190 271L178 264.5L190 258V271Z" fill="#E2CBB5"/>
<path d="M231 214L227 222L223 214L227 212L231 214Z" fill="#D5D3DD"/>
<path d="M213 214L209 222L205 214L209 212L213 214Z" fill="#D5D3DD"/>
<path fill-rule="evenodd" clip-rule="evenodd" d="M193.747 175.711C191.408 178.492 190 182.082 190 186V264H190C190 277.955 180.723 290.21 167.291 293.997L146 300H189.282H208C227.548 300 243.457 284.42 243.986 265H244V227H205C201.686 227 199 224.314 199 221C199 217.686 201.686 215 205 215H244V186C244 182.082 242.592 178.493 240.253 175.711L244.145 171.884C245.337 172.613 246.805 173.019 248.471 173.019C249.312 173.019 250 172.343 250 171.516C250 170.689 249.312 170.013 248.471 170.013C245.559 170.013 243.885 168.367 243.885 165.503C243.885 164.676 243.197 164 242.356 164C241.516 164 240.828 164.676 240.828 165.503C240.828 167.142 241.24 168.585 241.982 169.757L238.091 173.583C235.338 171.343 231.826 170 228 170H206C202.174 170 198.662 171.343 195.909 173.583L192.018 169.757C192.76 168.585 193.172 167.142 193.172 165.503C193.172 164.676 192.484 164 191.644 164C190.803 164 190.115 164.676 190.115 165.503C190.115 168.367 188.441 170.013 185.529 170.013C184.688 170.013 184 170.689 184 171.516C184 172.343 184.688 173.019 185.529 173.019C187.195 173.019 188.663 172.613 189.855 171.884L193.747 175.711Z" fill="#9FA628"/>
<path d="M193.747 175.711C191.408 178.492 190 182.082 190 186V264C190 277.955 180.723 290.21 167.291 293.997L146 300H208C227.548 300 243.457 284.42 243.986 265H244V227H205C201.686 227 199 224.314 199 221C199 217.686 201.686 215 205 215H244V186C244 182.082 242.592 178.493 240.253 175.711L244.145 171.884C245.337 172.613 246.805 173.019 248.471 173.019C249.312 173.019 250 172.343 250 171.516C250 170.689 249.312 170.013 248.471 170.013C245.559 170.013 243.885 168.367 243.885 165.503C243.885 164.676 243.197 164 242.356 164C241.516 164 240.828 164.676 240.828 165.503C240.828 167.142 241.24 168.585 241.982 169.757L238.091 173.583C235.338 171.343 231.826 170 228 170H206C202.174 170 198.662 171.343 195.909 173.583L192.018 169.757C192.76 168.585 193.172 167.142 193.172 165.503C193.172 164.676 192.484 164 191.644 164C190.803 164 190.115 164.676 190.115 165.503C190.115 168.367 188.441 170.013 185.529 170.013C184.688 170.013 184 170.689 184 171.516C184 172.343 184.688 173.019 185.529 173.019C187.195 173.019 188.663 172.613 189.855 171.884L193.747 175.711Z" fill="#9FA628"/>
<path d="M208 208C211.866 208 215 204.866 215 201C215 197.134 211.866 194 208 194C204.134 194 201 197.134 201 201C201 204.866 204.134 208 208 208Z" fill="white"/>
<path d="M208 204.5C209.933 204.5 211.5 202.933 211.5 201C211.5 199.067 209.933 197.5 208 197.5C206.067 197.5 204.5 199.067 204.5 201C204.5 202.933 206.067 204.5 208 204.5Z" fill="#BF6C35"/>
<path d="M227 208C230.866 208 234 204.866 234 201C234 197.134 230.866 194 227 194C223.134 194 220 197.134 220 201C220 204.866 223.134 208 227 208Z" fill="white"/>
<path d="M227 204.5C228.933 204.5 230.5 202.933 230.5 201C230.5 199.067 228.933 197.5 227 197.5C225.067 197.5 223.5 199.067 223.5 201C223.5 202.933 225.067 204.5 227 204.5Z" fill="#BF6C35"/>
<path d="M276 329.24C273.46 326.13 269.92 324 266 324H256V372H264V331H266C269.31 331 272 333.69 272 337V372H280V337C280 333.69 282.69 331 286 331H288V372H296V324H286C282.08 324 278.54 326.14 276 329.24Z" fill="#663F4C"/>
<path d="M298 338V372H306V355H314V372H322V324H312C304.28 324 298 330.28 298 338ZM314 348H306V337C306 333.69 308.69 331 312 331H314V348Z" fill="#663F4C"/>
<path d="M334 324H324V372H332V355H334C337.31 355 340 357.69 340 361V372H348V362C348 357.46 345.82 353.77 342.46 351.5C345.82 349.23 348 345.54 348 341V338C348 330.28 341.72 324 334 324ZM340 342C340 345.31 337.31 348 334 348H332V331H334C337.31 331 340 333.69 340 337V342Z" fill="#663F4C"/>
<path d="M350 331H356V372H364V331H370V324H350V331Z" fill="#663F4C"/>
<path d="M380 324H372V372H380V324Z" fill="#663F4C"/>
<path d="M382 338V372H390V356H398V372H406V324H396C388.28 324 382 330.28 382 338ZM398 349H390V337C390 333.69 392.69 331 396 331H398V349Z" fill="#663F4C"/>
<path d="M424 329.64C421 326.16 416.84 324 412 324H410H408V372H416V332.65C420.12 334.35 424 339.17 424 344V346V372H432V324H424V329.64Z" fill="#663F4C"/>
<path d="M458 340V336C458 327.04 453.72 323 446 323C438.28 323 434 328.28 434 336C434 351 450 351.06 450 360V361C450 364.04 449 366 446 366C442.96 366 442 364.04 442 361V356H434V360C434 369.08 438.28 373 446 373C453.72 373 458 367.72 458 360C458 345.06 442 345 442 336V335C442 332 442.96 330 446 330C449 330 450 332 450 335V340H458Z" fill="#663F4C"/>
<path fill-rule="evenodd" clip-rule="evenodd" d="M142 356V361C142 364.041 141 366 138 366C134.958 366 134 364.041 134 361V335C134 332 135 330 138 330C141.042 330 142 332 142 335V340H150V336C150 327.625 146.25 323 138 323C130.28 323 126 327.041 126 336V360C126 369.083 130.28 373 138 373C146.875 373 150 367.72 150 360V356H142Z" fill="#663F4C"/>
<path fill-rule="evenodd" clip-rule="evenodd" d="M194 356V361C194 364.041 193 366 190 366C186.958 366 186 364.041 186 361V335C186 332 187 330 190 330C193.042 330 194 332 194 335V340H202V336C202 327.625 198.25 323 190 323C182.28 323 178 327.041 178 336V360C178 369.083 182.28 373 190 373C198.875 373 202 367.72 202 360V356H194Z" fill="#663F4C"/>
<path fill-rule="evenodd" clip-rule="evenodd" d="M224 324V358C224 365.72 230.28 372 238 372H246V365H238C234.691 365 232 362.309 232 359V347H244V340H232V331H246V324H224Z" fill="#663F4C"/>
<path fill-rule="evenodd" clip-rule="evenodd" d="M24 324V372H32V347H44V340H32V331H46V324H24Z" fill="#663F4C"/>
<path fill-rule="evenodd" clip-rule="evenodd" d="M204 372V324H212V365H224V372H204Z" fill="#663F4C"/>
<path fill-rule="evenodd" clip-rule="evenodd" d="M74 372V324H82V365H94V372H74Z" fill="#663F4C"/>
<path fill-rule="evenodd" clip-rule="evenodd" d="M96 372V324H104V365H116V372H96Z" fill="#663F4C"/>
<path fill-rule="evenodd" clip-rule="evenodd" d="M168 324V344C168 346.209 166.209 348 164 348C161.791 348 160 346.209 160 344V324H152V342.683C152 347.907 154.75 352.562 160 354V372H168V354C173.187 352.687 176 347.907 176 342.683V324H168Z" fill="#663F4C"/>
<path fill-rule="evenodd" clip-rule="evenodd" d="M64 324V361.001C64 364.042 63 366.001 60 366.001C56.958 366.001 56 364.042 56 361.001V324H48V360.001C48 369.084 52.28 373.001 60 373.001C68.875 373.001 72 367.721 72 360.001V324H64Z" fill="#663F4C"/>
</svg>
