<svg width="480" height="480" viewBox="0 0 480 480" fill="none" xmlns="http://www.w3.org/2000/svg">
<path d="M358 174V177C358 178.66 359.34 180 361 180C362.66 180 364 178.66 364 177V174H358Z" fill="#D5D3DD"/>
<path d="M346 174V177C346 178.66 347.34 180 349 180C350.66 180 352 178.66 352 177V174H346Z" fill="#D5D3DD"/>
<path d="M334 174V177C334 178.66 335.34 180 337 180C338.66 180 340 178.66 340 177V174H334Z" fill="#D5D3DD"/>
<path d="M322 174V177C322 178.66 323.34 180 325 180C326.66 180 328 178.66 328 177V174H322Z" fill="#D5D3DD"/>
<path d="M352 194V191C352 189.34 353.34 188 355 188C356.66 188 358 189.34 358 191V194H352Z" fill="#D5D3DD"/>
<path d="M340 194V191C340 189.34 341.34 188 343 188C344.66 188 346 189.34 346 191V194H340Z" fill="#D5D3DD"/>
<path d="M328 194V191C328 189.34 329.34 188 331 188C332.66 188 334 189.34 334 191V194H328Z" fill="#D5D3DD"/>
<path d="M316 194V191C316 189.34 317.34 188 319 188C320.66 188 322 189.34 322 191V194H316Z" fill="#D5D3DD"/>
<path d="M368 248.145C368 221.054 368 226.578 368 192H316C311.59 192 308 188.41 308 184C308 179.59 311.59 176 316 176H368V169.74C371.45 168.85 374 165.73 374 162C374 158.27 371.45 155.15 368 154.26V144L362 137L356 142L350 136L344 142L338 136L332 142L326 136L320 142L314 136L308 142L302 137L296 144V154.26C292.55 155.15 290 158.27 290 162C290 165.73 292.55 168.85 296 169.74V248.145H368Z" fill="#E2CBB5"/>
<path d="M296 140C296 124.75 304.75 116 320 116H344C359.25 116 368 124.75 368 140V144C366.25 144 365.625 143 365 142C364.375 141 363.75 140 362 140C360.25 140 359.625 141 359 142C358.375 143 357.75 144 356 144C354.25 144 353.625 143 353 142C352.375 141 351.75 140 350 140C348.25 140 347.625 141 347 142C346.375 143 345.75 144 344 144C342.25 144 341.625 143 341 142C340.375 141 339.75 140 338 140C336.25 140 335.625 141 335 142C334.375 143 333.75 144 332 144C330.25 144 329.625 143 329 142C328.375 141 327.75 140 326 140C324.25 140 323.625 141 323 142C322.375 143 321.75 144 320 144C318.25 144 317.625 143 317 142C316.375 141 315.75 140 314 140C312.25 140 311.625 141 311 142C310.375 143 309.75 144 308 144C306.25 144 305.625 143 305 142C304.375 141 303.75 140 302 140C300.25 140 299.625 141 299 142C298.375 143 297.75 144 296 144V140Z" fill="#BF6C35"/>
<path d="M320 167C324.971 167 329 162.971 329 158C329 153.029 324.971 149 320 149C315.029 149 311 153.029 311 158C311 162.971 315.029 167 320 167Z" fill="white"/>
<path d="M320 163C322.761 163 325 160.761 325 158C325 155.239 322.761 153 320 153C317.239 153 315 155.239 315 158C315 160.761 317.239 163 320 163Z" fill="#9FA628"/>
<path d="M344 167C348.971 167 353 162.971 353 158C353 153.029 348.971 149 344 149C339.029 149 335 153.029 335 158C335 162.971 339.029 167 344 167Z" fill="white"/>
<path d="M344 163C346.761 163 349 160.761 349 158C349 155.239 346.761 153 344 153C341.239 153 339 155.239 339 158C339 160.761 341.239 163 344 163Z" fill="#9FA628"/>
<path d="M204 192L200 184L196 192L200 194L204 192Z" fill="#D5D3DD"/>
<path d="M192 192L188 184L184 192L188 194L192 192Z" fill="#D5D3DD"/>
<path d="M180 192L176 184L172 192L176 194L180 192Z" fill="#D5D3DD"/>
<path d="M168 192L164 184L160 192L164 194L168 192Z" fill="#D5D3DD"/>
<path d="M156 192L152 184L148 192L152 194L156 192Z" fill="#D5D3DD"/>
<path d="M198 176L194 184L190 176L194 174L198 176Z" fill="#D5D3DD"/>
<path d="M186 176L182 184L178 176L182 174L186 176Z" fill="#D5D3DD"/>
<path d="M174 176L170 184L166 176L170 174L174 176Z" fill="#D5D3DD"/>
<path d="M162 176L158 184L154 176L158 174L162 176Z" fill="#D5D3DD"/>
<path d="M136 259.4L111.88 246L136 232.6V259.4Z" fill="#E2CBB5"/>
<path d="M136 239.4L111.88 226L136 212.6V239.4Z" fill="#E2CBB5"/>
<path d="M136 219.4L111.88 206L136 192.6V219.4Z" fill="#E2CBB5"/>
<path d="M136 199.4L111.88 186L136 172.6V199.4Z" fill="#E2CBB5"/>
<path d="M152 192C147.59 192 144 188.41 144 184C144 179.59 147.59 176 152 176H204V140C204 133.25 202.28 127.78 199.05 123.78L204.34 118.49C205.9 119.46 207.82 120 210 120C211.1 120 212 119.1 212 118C212 116.9 211.1 116 210 116C206.19 116 204 113.81 204 110C204 108.9 203.1 108 202 108C200.9 108 200 108.9 200 110C200 112.18 200.54 114.1 201.51 115.66L196.22 120.95C192.22 117.72 186.75 116 180 116H156C149.25 116 143.78 117.72 139.78 120.95L134.49 115.66C135.46 114.1 136 112.18 136 110C136 108.9 135.1 108 134 108C132.9 108 132 108.9 132 110C132 113.81 129.81 116 126 116C124.9 116 124 116.9 124 118C124 119.1 124.9 120 126 120C128.18 120 130.1 119.46 131.66 118.49L136.95 123.78C133.72 127.78 132 133.25 132 140V244.145C132 244.145 204 243.855 204 244.145V244.145V192H152Z" fill="#9FA628"/>
<path d="M156 167C160.971 167 165 162.971 165 158C165 153.029 160.971 149 156 149C151.029 149 147 153.029 147 158C147 162.971 151.029 167 156 167Z" fill="white"/>
<path d="M156 163C158.761 163 161 160.761 161 158C161 155.239 158.761 153 156 153C153.239 153 151 155.239 151 158C151 160.761 153.239 163 156 163Z" fill="#BF6C35"/>
<path d="M180 167C184.971 167 189 162.971 189 158C189 153.029 184.971 149 180 149C175.029 149 171 153.029 171 158C171 162.971 175.029 167 180 167Z" fill="white"/>
<path d="M180 163C182.761 163 185 160.761 185 158C185 155.239 182.761 153 180 153C177.239 153 175 155.239 175 158C175 160.761 177.239 163 180 163Z" fill="#BF6C35"/>
<path d="M66.9321 172.573C65.1922 170.833 65.1922 168.012 66.9321 166.272C68.672 164.532 71.493 164.532 73.2329 166.272L127.84 220.879C129.58 222.619 129.58 225.44 127.84 227.18C126.1 228.92 123.279 228.92 121.539 227.18L66.9321 172.573Z" fill="#E7955F"/>
<path d="M56.271 212.491C54.3295 202.185 61.066 186.688 74.1277 173.627C87.1893 160.565 102.686 153.828 112.992 155.771C89.5702 169.548 70.0483 189.07 56.271 212.491V212.491Z" fill="#A3A0AE"/>
<path d="M69.033 174.673L75.3338 168.372C76.4938 167.212 78.3744 167.212 79.5344 168.372L87.9354 176.773C89.0954 177.933 89.0954 179.813 87.9354 180.973L81.6346 187.274C80.4747 188.434 78.594 188.434 77.4341 187.274L69.033 178.873C67.8731 177.713 67.8731 175.833 69.033 174.673Z" fill="#E2DEEF"/>
<path d="M89.0856 217.47L97.2554 206.312L116.536 203.386L127.648 211.618L111.309 233.932L89.0856 217.47Z" fill="#B31523"/>
<path d="M117.929 213.305L127.471 211.857L111.299 233.943L117.929 213.305Z" fill="#910916"/>
<path d="M89.0766 217.481L98.6183 216.033L97.1623 206.438L89.0766 217.481Z" fill="#D9414F"/>
<path d="M117.668 213.112L116.212 203.517L97.128 206.413L98.584 216.008L108.612 217.758L117.668 213.112Z" fill="#B31523"/>
<path d="M89.0512 217.445L98.5928 215.997L111.047 233.739L89.0512 217.445Z" fill="#CF1928"/>
<path d="M98.8082 215.892L106.894 204.849L117.893 212.996L98.8082 215.892Z" fill="#CF1928"/>
<path d="M121.429 219.295L131.18 209.489H150.682L160.433 219.295L140.931 238.905L121.429 219.295Z" fill="#B31523"/>
<path d="M150.571 219.504L160.222 219.504L140.919 238.914L150.571 219.504Z" fill="#910916"/>
<path d="M121.419 219.304L131.07 219.304L131.07 209.6L121.419 219.304Z" fill="#D9414F"/>
<path d="M150.342 219.275L150.342 209.569L131.039 209.57L131.039 219.275L140.691 222.51L150.342 219.275Z" fill="#B31523"/>
<path d="M121.399 219.265L131.05 219.265L140.701 238.674L121.399 219.265Z" fill="#CF1928"/>
<path d="M131.278 219.194L140.93 209.489L150.581 219.194H131.278Z" fill="#CF1928"/>
<path d="M102.212 200.078L111.964 190.273H131.465L141.216 200.078L121.714 219.689L102.212 200.078Z" fill="#B31523"/>
<path d="M131.354 200.288L141.005 200.288L121.703 219.698L131.354 200.288Z" fill="#910916"/>
<path d="M102.202 200.088L111.853 200.088L111.853 190.383L102.202 200.088Z" fill="#D9414F"/>
<path d="M131.125 200.058L131.125 190.353L111.823 190.353L111.823 200.058L121.474 203.293L131.125 200.058Z" fill="#B31523"/>
<path d="M102.182 200.048L111.833 200.048L121.484 219.458L102.182 200.048Z" fill="#CF1928"/>
<path d="M112.062 199.977L121.713 190.272L131.364 199.977H112.062Z" fill="#CF1928"/>
<path d="M206.964 195.196L220.312 191.58L237.201 201.33L240.743 214.698L214.048 221.93L206.964 195.196Z" fill="#B31523"/>
<path d="M232.097 209.948L240.455 214.774L214.034 221.932L232.097 209.948Z" fill="#910916"/>
<path d="M206.95 195.199L215.308 200.024L220.161 191.62L206.95 195.199Z" fill="#D9414F"/>
<path d="M232.014 209.635L236.866 201.23L220.15 191.579L215.297 199.983L222.038 207.611L232.014 209.635Z" fill="#B31523"/>
<path d="M206.953 195.155L215.311 199.98L213.965 221.615L206.953 195.155Z" fill="#CF1928"/>
<path d="M215.545 200.033L228.756 196.454L232.261 209.684L215.545 200.033Z" fill="#CF1928"/>
<path d="M175.482 218.667L182.971 207.041L202.043 202.97L213.626 210.524L198.648 233.774L175.482 218.667Z" fill="#B31523"/>
<path d="M204.025 212.788L213.464 210.773L198.639 233.785L204.025 212.788Z" fill="#910916"/>
<path d="M175.474 218.679L184.912 216.664L182.886 207.173L175.474 218.679Z" fill="#D9414F"/>
<path d="M203.754 212.611L201.727 203.12L182.85 207.15L184.876 216.641L194.99 217.79L203.754 212.611Z" fill="#B31523"/>
<path d="M175.446 218.644L184.884 216.629L198.375 233.596L175.446 218.644Z" fill="#CF1928"/>
<path d="M185.093 216.512L192.506 205.006L203.971 212.482L185.093 216.512Z" fill="#CF1928"/>
<path d="M86 214H246L231.287 296H100.713L86 214Z" fill="#E7955F"/>
<path d="M235 276L231.218 297H100.782L97.0938 276H235Z" fill="#F3B993"/>
<circle cx="119.898" cy="295.063" r="12.9113" fill="#F3B993"/>
<circle cx="211.778" cy="295.063" r="12.9113" fill="#F3B993"/>
<circle cx="120" cy="295" r="10" stroke="#BF6C35" stroke-width="6"/>
<circle cx="212" cy="295" r="10" stroke="#BF6C35" stroke-width="6"/>
<path d="M72.0924 285.082L86.066 285.043L100 298.963L99.9612 312.923L72.0148 313L72.0924 285.082Z" fill="#B31523"/>
<path d="M92.7647 306.033L99.6603 312.921L72 312.998L92.7647 306.033Z" fill="#910916"/>
<path d="M72.0779 285.081L78.9736 291.97L85.9076 285.043L72.0779 285.081Z" fill="#D9414F"/>
<path d="M92.7656 305.705L99.6997 298.777L85.9075 285L78.9734 291.927L83.558 301.125L92.7656 305.705Z" fill="#B31523"/>
<path d="M72.0922 285.039L78.9879 291.928L72.0154 312.671L72.0922 285.039Z" fill="#CF1928"/>
<path d="M79.2019 292.04L93.0325 292.002L92.9941 305.818L79.2019 292.04Z" fill="#CF1928"/>
<path d="M94.0807 225.439L107.387 230.477L115.581 248.793L110.469 262.071L83.8567 251.994L94.0807 225.439Z" fill="#B31523"/>
<path d="M106.128 252.896L110.183 261.96L83.8432 251.987L106.128 252.896Z" fill="#910916"/>
<path d="M94.0671 225.433L98.122 234.497L107.236 230.419L94.0671 225.433Z" fill="#D9414F"/>
<path d="M106.248 252.585L115.363 248.507L107.252 230.378L98.1375 234.456L99.1543 244.88L106.248 252.585Z" fill="#B31523"/>
<path d="M94.0961 225.398L98.1511 234.462L83.9767 251.681L94.0961 225.398Z" fill="#CF1928"/>
<path d="M98.3138 234.647L111.484 239.633L106.424 252.776L98.3138 234.647Z" fill="#CF1928"/>
<path d="M107.172 221.306L108.767 229.919L117.381 230.698L108.767 233.11L107.172 241.724L105.576 233.11L96.9629 232.536L105.576 229.919L107.172 221.306Z" fill="white"/>
<path d="M258.187 217.096L258.149 203.267L271.938 189.477L285.767 189.516L285.844 217.172L258.187 217.096Z" fill="#B31523"/>
<path d="M278.942 196.638L285.766 189.814L285.842 217.187L278.942 196.638Z" fill="#910916"/>
<path d="M258.187 217.11L265.011 210.286L258.149 203.424L258.187 217.11Z" fill="#D9414F"/>
<path d="M278.618 196.637L271.755 189.775L258.106 203.424L264.969 210.286L274.081 205.749L278.618 196.637Z" fill="#B31523"/>
<path d="M258.145 217.096L264.969 210.272L285.518 217.172L258.145 217.096Z" fill="#CF1928"/>
<path d="M265.08 210.06L265.042 196.373L278.73 196.411L265.08 210.06Z" fill="#CF1928"/>
<path d="M283.573 207.885L293.324 198.079H312.826L322.577 207.885L303.075 227.495L283.573 207.885Z" fill="#B31523"/>
<path d="M312.715 208.095L322.366 208.095L303.063 227.504L312.715 208.095Z" fill="#910916"/>
<path d="M283.563 207.895L293.214 207.895L293.214 198.19L283.563 207.895Z" fill="#D9414F"/>
<path d="M312.486 207.865L312.486 198.159L293.183 198.16L293.183 207.865L302.835 211.1L312.486 207.865Z" fill="#B31523"/>
<path d="M283.543 207.855L293.194 207.855L302.845 227.265L283.543 207.855Z" fill="#CF1928"/>
<path d="M293.422 207.784L303.074 198.079L312.725 207.784H293.422Z" fill="#CF1928"/>
<path d="M322.65 231.182L325.142 217.579L341.221 206.545L354.809 209.113L349.826 236.317L322.65 231.182Z" fill="#B31523"/>
<path d="M346.797 214.866L354.754 209.405L349.821 236.331L346.797 214.866Z" fill="#910916"/>
<path d="M322.646 231.196L330.604 225.735L325.113 217.733L322.646 231.196Z" fill="#D9414F"/>
<path d="M346.478 214.806L340.986 206.804L325.071 217.726L330.562 225.728L340.35 222.934L346.478 214.806Z" fill="#B31523"/>
<path d="M322.608 231.174L330.565 225.714L349.505 236.257L322.608 231.174Z" fill="#CF1928"/>
<path d="M330.713 225.526L333.18 212.063L346.629 214.604L330.713 225.526Z" fill="#CF1928"/>
<path d="M377.052 199.428L388.757 192.064L407.76 196.445L415.059 208.191L391.649 222.919L377.052 199.428Z" fill="#B31523"/>
<path d="M405.401 206.18L414.806 208.348L391.636 222.925L405.401 206.18Z" fill="#910916"/>
<path d="M377.039 199.435L386.444 201.604L388.624 192.147L377.039 199.435Z" fill="#D9414F"/>
<path d="M405.23 205.904L407.41 196.447L388.601 192.111L386.421 201.568L395.099 206.888L405.23 205.904Z" fill="#B31523"/>
<path d="M377.029 199.392L386.433 201.56L391.477 222.642L377.029 199.392Z" fill="#CF1928"/>
<path d="M386.672 201.543L398.257 194.254L405.481 205.879L386.672 201.543Z" fill="#CF1928"/>
<path d="M350.229 210.888L359.98 201.082H379.482L389.233 210.888L369.731 230.498L350.229 210.888Z" fill="#B31523"/>
<path d="M379.371 211.097L389.022 211.097L369.719 230.507L379.371 211.097Z" fill="#910916"/>
<path d="M350.218 210.897L359.869 210.897L359.869 201.193L350.218 210.897Z" fill="#D9414F"/>
<path d="M379.142 210.867L379.142 201.162L359.839 201.163L359.839 210.867L369.491 214.103L379.142 210.867Z" fill="#B31523"/>
<path d="M350.199 210.858L359.85 210.858L369.501 230.267L350.199 210.858Z" fill="#CF1928"/>
<path d="M360.078 210.787L369.73 201.082L379.381 210.787H360.078Z" fill="#CF1928"/>
<path d="M253 214H413L398.287 296H267.713L253 214Z" fill="#E7955F"/>
<path d="M401.82 276L398.218 296H267.782L264.18 276H401.82Z" fill="#F3B993"/>
<circle cx="286.843" cy="295.063" r="12.9113" fill="#F3B993"/>
<circle cx="378.812" cy="295.152" r="13" fill="#F3B993"/>
<circle cx="287" cy="295" r="10" stroke="#BF6C35" stroke-width="6"/>
<circle cx="378.724" cy="295.063" r="9.91128" stroke="#BF6C35" stroke-width="6"/>
<path d="M386.233 197.267L387.828 205.88L396.442 206.659L387.828 209.071L386.233 217.685L384.637 209.071L376.024 208.497L384.637 205.88L386.233 197.267Z" fill="white"/>
<path fill-rule="evenodd" clip-rule="evenodd" d="M161 360.15C161 362.828 158.829 365 156.15 365H153V349H156.15C158.829 349 161 351.171 161 353.849V360.15ZM153 331H156.037C158.226 331 160 332.774 160 334.963V338.036C160 340.225 158.226 342 156.037 342H153V331ZM164.695 345.758C166.732 343.737 168 340.941 168 337.863V335.136C168 329.011 162.988 324 156.863 324H145V372H157.012C163.633 372 169 366.632 169 360.011V355.719C169 351.792 167.341 348.259 164.695 345.758Z" fill="#663F4C"/>
<path fill-rule="evenodd" clip-rule="evenodd" d="M109 342C109 345.309 106.309 348 103 348H101V331H103C106.309 331 109 333.691 109 337V342ZM117 338C117 330.28 110.72 324 103 324H93V372H101V355H103C106.309 355 109 357.691 109 361V372H117V362C117 357.459 114.818 353.774 111.458 351.5C114.818 349.225 117 345.54 117 341V338Z" fill="#663F4C"/>
<path fill-rule="evenodd" clip-rule="evenodd" d="M135 324V361.001C135 364.042 134 366.001 131 366.001C127.958 366.001 127 364.042 127 361.001V324H119V360.001C119 369.084 123.28 373.001 131 373.001C139.875 373.001 143 367.721 143 360.001V324H135Z" fill="#663F4C"/>
<path fill-rule="evenodd" clip-rule="evenodd" d="M186 324V344C186 346.209 184.209 348 182 348C179.791 348 178 346.209 178 344V324H170V342.683C170 347.907 172.75 352.562 178 354V372H186V354C191.187 352.687 194 347.907 194 342.683V324H186Z" fill="#663F4C"/>
<path d="M225 329.24C222.46 326.13 218.92 324 215 324H205V372H213V331H215C218.31 331 221 333.69 221 337V372H229V337C229 333.69 231.69 331 235 331H237V372H245V324H235C231.08 324 227.54 326.14 225 329.24Z" fill="#663F4C"/>
<path d="M247 338V372H255V355H263V372H271V324H261C253.28 324 247 330.28 247 338ZM263 348H255V337C255 333.69 257.69 331 261 331H263V348Z" fill="#663F4C"/>
<path d="M283 324H273V372H281V355H283C286.31 355 289 357.69 289 361V372H297V362C297 357.46 294.82 353.77 291.46 351.5C294.82 349.23 297 345.54 297 341V338C297 330.28 290.72 324 283 324ZM289 342C289 345.31 286.31 348 283 348H281V331H283C286.31 331 289 333.69 289 337V342Z" fill="#663F4C"/>
<path d="M299 331H305V372H313V331H319V324H299V331Z" fill="#663F4C"/>
<path d="M329 324H321V372H329V324Z" fill="#663F4C"/>
<path d="M331 338V372H339V356H347V372H355V324H345C337.28 324 331 330.28 331 338ZM347 349H339V337C339 333.69 341.69 331 345 331H347V349Z" fill="#663F4C"/>
<path d="M373 329.64C370 326.16 365.84 324 361 324H359H357V372H365V332.65C369.12 334.35 373 339.17 373 344V346V372H381V324H373V329.64Z" fill="#663F4C"/>
<path d="M407 340V336C407 327.04 402.72 323 395 323C387.28 323 383 328.28 383 336C383 351 399 351.06 399 360V361C399 364.04 398 366 395 366C391.96 366 391 364.04 391 361V356H383V360C383 369.08 387.28 373 395 373C402.72 373 407 367.72 407 360C407 345.06 391 345 391 336V335C391 332 391.96 330 395 330C398 330 399 332 399 335V340H407Z" fill="#663F4C"/>
</svg>
